<svg xmlns="http://www.w3.org/2000/svg" viewBox="0 0 64 64"><title>UpTapGame</title><rect width="64" height="64" fill="transparent"/><path d="M20.8,19.16V34.3a5.27,5.27,0,0,1-.17,1.3,2.51,2.51,0,0,1-2.65,2,3.11,3.11,0,0,1-1.27-.23c-1-.46-1.55-1.47-1.52-3V19.16H5V34.65Q5,45.57,17.84,45.56c7.91,0,11.89-3.63,11.89-10.91V19.16Z" fill="#c01733"/><path d="M56,20.89A10.08,10.08,0,0,0,52,19.05a27.1,27.1,0,0,0-6.47-.61c-2.74,0-6.77.26-12.12.81V45H44V33.21H39.05l9.87-9.87V40.17a10.37,10.37,0,0,0,2.68-.69,11.83,11.83,0,0,0,3.86-2.33A10.84,10.84,0,0,0,59,29C59,25.24,58,22.53,56,20.89Z" fill="#c01733"/></svg>