<svg viewBox="0 0 340 60" xmlns="http://www.w3.org/2000/svg"><g><g><g><ellipse cx="34.967" cy="45.905" rx="34.967" ry="4.091" style="fill:#c01733;"/><path d="M10.196,38.019c-0.226,-0.031 -0.439,-0.077 -0.487,-0.115c-0.503,-0.392 -0.537,-1.29 -0.66,-1.864c-0.014,-0.067 -0.148,-0.425 -0.105,-0.494c0.242,-0.39 1.543,-0.357 1.158,-1.065c-0.494,-0.909 -1.676,-0.386 -1.789,-1.674c-0.045,-0.52 0.812,-1.219 1.176,-1.51c0.103,-0.082 0.6,-0.27 0.636,-0.406c0.046,-0.176 -0.424,-0.277 -0.518,-0.338c-0.399,-0.259 -0.5,-0.641 -0.594,-1.078c-0.212,-0.998 0.258,-1.7 0.814,-2.487c0.06,-0.085 -0.477,-0.306 -0.527,-0.343c-0.279,-0.206 -0.575,-0.594 -0.713,-0.914c-0.538,-1.248 0.667,-0.871 0.953,-1.617c0.428,-1.117 -0.167,-1.974 0.045,-3.095c0.072,-0.379 0.915,-0.808 0.757,-1.129c-0.135,-0.276 -1.077,-0.221 -1.341,-0.392l-0.117,-0.231c-0.173,-0.811 -0.705,-2.008 -0.196,-2.772c0.227,-0.341 0.789,-0.282 0.94,-0.5c0.079,-0.114 -0.197,-0.656 -0.228,-0.737c-0.219,-0.554 -0.528,-1.544 -0.495,-2.15c0.037,-0.669 1.539,-1.083 1.675,-1.656c0.187,-0.791 -0.756,-1.57 0.36,-1.959c0.373,-0.129 1.002,-0.457 1.411,-0.394c0.425,0.066 0.317,0.392 0.759,0.298c0.234,-0.05 0.98,-0.346 1.182,-0.144c0.492,0.494 0.91,0.54 1.2,1.132c0.145,0.297 1.335,0.302 1.441,0.509c0.212,0.412 0.195,0.659 0.522,1.017c0.456,0.5 0.77,0.63 1.242,1.017c0.341,0.279 0.398,1.357 0.779,1.525c0.781,0.344 0.73,-0.793 1.601,-0.694c0.53,0.059 0.652,0.682 1.47,-0.359l-0,-0.048c0.879,-0.187 2.28,0.363 3.089,-0.257c0.31,-0.237 0.543,-0.685 0.894,-0.866c0.634,-0.327 1.032,0.321 1.625,0.057c0.599,-0.267 1.161,-1.551 1.982,-1.399c0.399,0.074 0.671,0.309 1.108,0.272c0.31,-0.027 0.846,-0.462 1.138,-0.362c0.561,0.192 0.616,-1.063 1.157,-0.853c0.476,0.184 0.574,0.767 0.802,0.311c0.896,-1.795 2.184,-0.4 2.422,-0.378c0.424,0.039 0.256,-0.016 0.86,-0.284c0.736,-0.326 1.007,-0.049 1.679,-0.457c0.138,-0.084 0.427,0.032 0.622,-0.041c0.381,-0.143 0.871,-0.509 1.315,-0.438c0.11,0.018 0.348,0.271 0.442,0.258c0.08,-0.011 -0.008,-0.181 0.051,-0.236c0.216,-0.198 0.617,-0.248 0.897,-0.308c0.199,-0.042 0.489,-0.163 0.678,-0.088c0.057,0.023 0.531,0.246 0.572,0.177c0.152,-0.258 0.113,-0.664 0.242,-0.945c0.222,-0.484 0.652,-0.841 0.863,-1.406c0.112,-0.299 0.375,-1.23 0.695,-1.298c-0,-0.257 -0.179,-0.589 -0.179,-0.845c-0,-0.231 0.311,-0.669 0.415,-0.891c0.146,-0.314 1.282,-0.013 1.511,-0.231c0.236,-0.226 0.24,-1.084 0.459,-1.422c0.176,-0.27 0.686,0.047 0.86,-0.114c0.194,-0.179 0.995,-0.979 1.303,-0.77c1.023,0.695 1.023,0.695 1.487,1.623c0.134,0.268 1.367,-0.264 1.459,0.165c0.096,0.445 -0.092,0.949 0,1.394c0.072,0.348 0.337,0.514 0.427,0.789c0.207,0.642 0.187,1.331 0.345,1.978c0.102,0.419 0.566,0.473 0.633,0.828c0.073,0.384 -0.437,1.903 -0.186,2.142c0.257,0.245 0.552,-0.063 0.623,0.463c0.05,0.367 -0.377,1.95 -0.172,2.175c0.181,0.2 0.4,0.133 0.264,0.674c-0.155,0.62 -0.256,1.57 0.046,2.174c0.104,0.209 0.807,-0.113 0.876,0.107c0.1,0.324 -0.151,0.833 -0,1.133c0.093,0.187 0.59,1.269 0.721,1.355c0.265,0.174 0.854,0.314 0.962,0.577c0.174,0.422 0,1.217 0,1.686l-0.162,0.638c1.567,0 0.225,2.704 0.675,3.469c0.616,1.05 1.718,-0.132 1.621,1.23c-0.062,0.868 -0.514,1.955 -0.792,2.766c-0.012,0.034 -0.304,0.857 -0.249,0.892c0.203,0.129 0.705,-0.172 0.879,0.037c0.332,0.398 0.221,1.215 0.512,1.671c0.179,0.279 0.982,0.563 0.765,1.068c-0.256,0.596 -0.644,1.173 -0.9,1.763c-0.055,0.127 0.195,0.022 0.23,0.1c0.121,0.277 -0.284,0.694 -0.412,0.844l0.331,-0.239c-0,0.52 -0.171,1.037 -0.115,1.572c0.048,0.445 0.458,0.713 0.544,1.127c0.112,0.54 -0.215,1.085 -0.135,1.63c0.028,0.19 0.188,0.28 0.275,0.43c0.091,0.154 0.059,0.387 0.059,0.555c0,0.354 0.13,0.841 -0.121,1.092c-0.092,0.092 -0.33,0.585 -0.386,0.473l0.002,-0.027c0.014,-0.204 0.029,-0.402 0.029,-0.582l-0.029,0.582c-0.027,0.377 -0.051,0.771 0.029,1.092c0.062,0.246 0.413,0.328 0.482,0.603c0.191,0.763 -0.273,1.585 -0.121,2.322c0.114,0.55 0.657,1.453 0.859,1.9c0.58,1.281 0.311,1.13 0.106,1.762c-6.416,0.875 -15.932,1.429 -26.547,1.429c-8.647,0 -16.566,-0.368 -22.672,-0.977c0.021,-0.197 0.05,-0.393 0.05,-0.581c-0,-0.08 -0.057,-0.521 -0,-0.579c0.561,-0.576 1.179,-1.021 1.09,-2.035c-0.075,-0.838 -1.129,-1.76 -1.704,-2.153c-0.064,-0.044 0.158,-0.416 0.165,-0.446c0.04,-0.166 0.021,-0.489 -0,-0.664c-0.039,-0.325 -0.287,-0.387 -0.418,-0.601c-0.294,-0.481 0.308,-1.717 0.172,-2.328c-0.163,-0.731 -1.37,-0.235 -1.501,-0.923c-0.006,-0.071 -0.012,-0.131 -0.012,-0.131c0,0.048 0.004,0.092 0.012,0.131c0.016,0.215 0.025,0.536 -0.157,-0.32c-0.038,-0.177 0.064,-0.3 0.208,-0.374Zm0,-0c0.235,-0.122 0.58,-0.117 0.612,-0.014c0.022,0.07 -0.307,0.056 -0.612,0.014Z" style="fill:#eefcfa;"/><path d="M34.908,24.097c10.978,-2.34 20.249,-3.733 20.935,0.656c1.431,9.153 -6.602,12.746 -17.58,15.086c-10.979,2.34 -20.18,2.89 -22.204,-6.606c-0.926,-4.344 7.87,-6.796 18.849,-9.136Z" style="fill:#ffaf92;"/><path d="M23.16,31.69c1.098,-0.234 2.179,0.468 2.413,1.566c0.234,1.097 -0.468,2.179 -1.565,2.413c-1.098,0.234 -2.18,-0.468 -2.414,-1.565c-0.234,-1.098 0.468,-2.18 1.566,-2.414Z"/><path d="M23.054,31.193c-1.373,0.293 -2.249,1.644 -1.957,3.016c0.293,1.373 1.644,2.25 3.017,1.957c1.372,-0.292 2.249,-1.644 1.956,-3.016c-0.292,-1.373 -1.644,-2.249 -3.016,-1.957l-0,0Zm0.212,0.995c0.823,-0.176 1.634,0.35 1.81,1.174c0.175,0.823 -0.351,1.634 -1.174,1.809c-0.824,0.176 -1.635,-0.35 -1.81,-1.173c-0.176,-0.824 0.35,-1.635 1.174,-1.81l-0,-0Z" style="fill:#ebebeb;"/><path d="M49.931,26.097c1.097,-0.234 2.179,0.467 2.413,1.565c0.234,1.098 -0.468,2.179 -1.565,2.413c-1.098,0.234 -2.18,-0.467 -2.414,-1.565c-0.234,-1.098 0.468,-2.179 1.566,-2.413Z"/><path d="M49.825,25.599c-1.373,0.293 -2.249,1.644 -1.957,3.017c0.293,1.372 1.644,2.249 3.017,1.956c1.372,-0.292 2.249,-1.644 1.956,-3.016c-0.292,-1.373 -1.644,-2.249 -3.016,-1.957l-0,0Zm0.212,0.995c0.823,-0.176 1.634,0.35 1.809,1.174c0.176,0.823 -0.35,1.634 -1.173,1.81c-0.824,0.175 -1.635,-0.351 -1.81,-1.174c-0.176,-0.824 0.35,-1.635 1.174,-1.81l-0,-0Z" style="fill:#ebebeb;"/><path d="M37.848,31.243c1.646,-0.351 3.151,0.152 3.358,1.122c0.207,0.971 -0.962,2.043 -2.609,2.394c-1.647,0.351 -3.152,-0.151 -3.359,-1.122c-0.206,-0.97 0.963,-2.043 2.61,-2.394Z"/><path d="M39.143,33.589l-1.166,0.248l0.672,3.152l1.165,-0.248l-0.671,-3.152Z"/><path d="M13.105,12.033c-2.192,1.289 -1.066,7.015 -0,7.827c0.971,-1.273 3.219,-2.742 4.67,-3.251c-1.002,-2.429 -3.284,-5.391 -4.67,-4.576Z" style="fill:#ffa6a6;"/><path d="M49.21,3.864c2.527,0.284 2.835,5.667 2.193,6.844c-1.406,-0.767 -3.367,-1.163 -4.899,-1.035c-0.076,-2.627 1.109,-5.988 2.706,-5.809Z" style="fill:#ffa6a6;"/><path d="M37.119,37.255c0.741,0.301 2.559,0.325 3.967,-0.807c0.175,-0.141 0.203,-0.397 0.062,-0.572c-0.14,-0.175 -0.397,-0.203 -0.572,-0.062c-1.121,0.902 -2.56,0.927 -3.151,0.687c-0.208,-0.085 -0.445,0.016 -0.53,0.224c-0.084,0.208 0.016,0.445 0.224,0.53Z"/><path d="M11.793,48.972c0.019,-0.18 0.039,-0.358 0.039,-0.53c0,-0.071 -0.035,-0.395 -0.019,-0.555c0.019,-0.192 0.103,-0.317 0.164,-0.379c0.215,-0.22 0.439,-0.42 0.625,-0.643c0.212,-0.255 0.361,-0.548 0.322,-0.992c-0.022,-0.249 -0.176,-0.5 -0.362,-0.74c-0.34,-0.439 -0.81,-0.825 -1.122,-1.039c-0.115,-0.078 -0.208,-0.199 -0.229,-0.384c-0.008,-0.066 -0.004,-0.162 0.029,-0.272c0.031,-0.102 0.122,-0.287 0.165,-0.372c0.017,-0.127 -0.004,-0.327 -0.018,-0.44c-0.004,-0.034 -0.031,-0.045 -0.048,-0.062c-0.024,-0.022 -0.047,-0.043 -0.071,-0.065c-0.084,-0.079 -0.163,-0.164 -0.227,-0.269c-0.168,-0.275 -0.186,-0.718 -0.094,-1.21c0.048,-0.259 0.118,-0.537 0.166,-0.795c0.034,-0.182 0.065,-0.35 0.036,-0.479c-0.005,-0.022 -0.03,-0.018 -0.048,-0.024c-0.029,-0.01 -0.059,-0.017 -0.09,-0.024c-0.165,-0.037 -0.346,-0.055 -0.508,-0.092c-0.141,-0.032 -0.27,-0.078 -0.383,-0.141c-0.034,-0.003 -0.07,-0.009 -0.105,-0.018c-0.078,-0.019 -0.211,-0.063 -0.317,-0.235c-0.029,-0.047 -0.106,-0.238 -0.207,-0.713c-0.011,-0.05 -0.017,-0.098 -0.02,-0.145c-0.031,-0.017 -0.055,-0.034 -0.074,-0.049c-0.278,-0.216 -0.466,-0.536 -0.586,-0.903c-0.134,-0.412 -0.182,-0.888 -0.257,-1.246c-0.011,-0.037 -0.11,-0.355 -0.123,-0.488c-0.018,-0.18 0.034,-0.314 0.081,-0.391c0.119,-0.191 0.371,-0.356 0.68,-0.474l0.413,-0.159c-0.185,-0.255 -0.479,-0.289 -0.724,-0.384c-0.26,-0.1 -0.497,-0.227 -0.685,-0.432c-0.195,-0.212 -0.348,-0.509 -0.389,-0.976c-0.022,-0.254 0.064,-0.541 0.244,-0.821c0.289,-0.448 0.836,-0.904 1.12,-1.131c0.006,-0.004 0.014,-0.01 0.024,-0.017c-0.42,-0.333 -0.568,-0.78 -0.679,-1.302c-0.207,-0.97 0.114,-1.708 0.603,-2.459c-0.061,-0.033 -0.11,-0.06 -0.121,-0.068c-0.343,-0.253 -0.708,-0.728 -0.878,-1.122c-0.2,-0.465 -0.204,-0.784 -0.142,-1.01c0.08,-0.288 0.267,-0.482 0.523,-0.629c0.112,-0.064 0.241,-0.119 0.366,-0.185c0.076,-0.041 0.162,-0.08 0.198,-0.176c0.179,-0.467 0.132,-0.881 0.075,-1.294c-0.076,-0.546 -0.172,-1.094 -0.054,-1.714c0.043,-0.231 0.241,-0.498 0.488,-0.738l0.034,-0.034c-0.228,-0.034 -0.457,-0.074 -0.637,-0.126c-0.066,0.034 -0.236,0.07 -0.423,-0.298c-0.001,-0.002 -0.012,-0.023 -0.117,-0.23c-0.02,-0.039 -0.035,-0.081 -0.044,-0.125c-0.107,-0.502 -0.344,-1.148 -0.405,-1.754c-0.053,-0.515 0.015,-1.004 0.283,-1.405c0.154,-0.232 0.388,-0.372 0.643,-0.46c0.037,-0.013 0.081,-0.027 0.127,-0.042l-0.108,-0.267c-0.24,-0.609 -0.566,-1.7 -0.529,-2.364c0.021,-0.398 0.332,-0.78 0.781,-1.096c0.224,-0.157 0.477,-0.307 0.685,-0.459c0.063,-0.046 0.121,-0.092 0.169,-0.139c0.019,-0.02 0.046,-0.054 0.054,-0.065c0.031,-0.148 -0.01,-0.294 -0.049,-0.435c-0.043,-0.159 -0.093,-0.314 -0.124,-0.459c-0.062,-0.295 -0.051,-0.566 0.072,-0.807c0.116,-0.226 0.337,-0.451 0.787,-0.608c0.228,-0.079 0.551,-0.231 0.863,-0.326c0.285,-0.087 0.564,-0.125 0.792,-0.09c0.158,0.024 0.276,0.071 0.371,0.124c0.079,0.044 0.17,0.122 0.227,0.174c0.19,-0.045 0.617,-0.195 0.931,-0.217c0.308,-0.021 0.552,0.072 0.695,0.216c0.223,0.224 0.432,0.344 0.615,0.477c0.241,0.176 0.451,0.366 0.629,0.691c0.108,0.028 0.428,0.112 0.624,0.15c0.23,0.045 0.435,0.099 0.557,0.159c0.162,0.08 0.257,0.191 0.309,0.291c0.095,0.186 0.15,0.341 0.205,0.487c0.051,0.139 0.1,0.266 0.24,0.419c0.435,0.477 0.738,0.597 1.188,0.966c0.226,0.185 0.399,0.613 0.537,1.043c0.047,0.148 0.142,0.362 0.171,0.427c0.025,-0.024 0.077,-0.075 0.106,-0.109c0.05,-0.058 0.099,-0.119 0.153,-0.177c0.264,-0.291 0.591,-0.527 1.148,-0.465c0.167,0.019 0.31,0.07 0.44,0.132c0.056,0.027 0.146,0.072 0.19,0.093c0.024,-0.015 0.06,-0.04 0.087,-0.064c0.065,-0.058 0.136,-0.133 0.216,-0.229c0.057,-0.164 0.196,-0.292 0.374,-0.33c0.479,-0.102 1.099,-0.016 1.71,0.023c0.432,0.029 0.864,0.052 1.176,-0.187c0.164,-0.125 0.297,-0.321 0.449,-0.488c0.157,-0.174 0.328,-0.327 0.521,-0.426c0.395,-0.204 0.731,-0.176 1.052,-0.081c0.123,0.036 0.242,0.085 0.364,0.12c0.073,0.022 0.149,0.044 0.235,0.006c0.127,-0.057 0.242,-0.189 0.37,-0.329c0.19,-0.207 0.387,-0.44 0.596,-0.631c0.391,-0.357 0.831,-0.565 1.316,-0.475c0.192,0.036 0.361,0.1 0.528,0.164c0.137,0.053 0.269,0.116 0.443,0.101c0.061,-0.005 0.132,-0.051 0.213,-0.09c0.161,-0.077 0.332,-0.163 0.488,-0.217c0.186,-0.064 0.363,-0.083 0.515,-0.06c0.035,-0.052 0.084,-0.127 0.115,-0.181c0.074,-0.13 0.151,-0.257 0.235,-0.358c0.251,-0.301 0.556,-0.432 0.957,-0.276c0.14,0.054 0.259,0.132 0.36,0.214c0.27,-0.41 0.567,-0.632 0.851,-0.747c0.371,-0.15 0.743,-0.127 1.081,-0.019c0.366,0.118 0.683,0.345 0.872,0.458l0.041,0.002l0.07,-0.04c0.09,-0.051 0.215,-0.12 0.419,-0.21c0.359,-0.159 0.627,-0.201 0.872,-0.225c0.233,-0.023 0.437,-0.012 0.749,-0.201c0.113,-0.069 0.257,-0.107 0.425,-0.106c0.085,0 0.267,0.013 0.303,0.015c0.224,-0.087 0.483,-0.246 0.747,-0.347c0.27,-0.102 0.544,-0.151 0.807,-0.109c0.051,0.009 0.114,0.028 0.183,0.061c0.286,-0.19 0.707,-0.275 1.02,-0.342c0.127,-0.027 0.289,-0.083 0.442,-0.107c0.193,-0.03 0.377,-0.017 0.53,0.044l0.026,0.01l0.001,-0.004c0.028,-0.183 0.067,-0.362 0.137,-0.514c0.103,-0.225 0.243,-0.427 0.391,-0.63c0.166,-0.225 0.349,-0.449 0.458,-0.742c0.085,-0.228 0.257,-0.789 0.468,-1.133c0.046,-0.076 0.097,-0.143 0.149,-0.2c-0.016,-0.051 -0.035,-0.103 -0.05,-0.155c-0.049,-0.166 -0.084,-0.331 -0.084,-0.477c0,-0.125 0.038,-0.287 0.114,-0.458c0.099,-0.225 0.276,-0.49 0.349,-0.648c0.103,-0.22 0.367,-0.406 0.767,-0.439c0.227,-0.019 0.662,-0.015 0.856,-0.012c0.027,-0.092 0.066,-0.232 0.087,-0.335c0.071,-0.354 0.159,-0.719 0.295,-0.929c0.126,-0.194 0.304,-0.297 0.518,-0.332c0.112,-0.019 0.24,-0.015 0.369,0.002l0.159,0.022c0.212,-0.197 0.608,-0.551 0.937,-0.714c0.353,-0.175 0.677,-0.151 0.892,-0.005c1.055,0.717 1.132,0.774 1.546,1.597c0.152,-0.019 0.397,-0.048 0.554,-0.062c0.251,-0.022 0.478,-0 0.633,0.065c0.226,0.094 0.372,0.258 0.424,0.501c0.049,0.226 0.046,0.465 0.025,0.705c-0.021,0.235 -0.07,0.472 -0.024,0.693c0.027,0.128 0.109,0.209 0.172,0.296c0.1,0.138 0.188,0.278 0.24,0.44c0.212,0.653 0.195,1.355 0.356,2.014c0.02,0.081 0.093,0.112 0.147,0.155c0.071,0.058 0.141,0.114 0.203,0.175c0.144,0.142 0.248,0.308 0.289,0.523c0.039,0.206 -0.038,0.689 -0.134,1.181c-0.043,0.217 -0.078,0.509 -0.096,0.683c0.064,0.011 0.132,0.026 0.175,0.042c0.2,0.078 0.427,0.219 0.496,0.726c0.026,0.189 -0.043,0.664 -0.124,1.15c-0.045,0.276 -0.079,0.665 -0.091,0.823c0.036,0.024 0.071,0.043 0.099,0.068c0.078,0.071 0.142,0.153 0.188,0.259c0.061,0.139 0.106,0.353 0.009,0.741c-0.112,0.447 -0.213,1.099 -0.078,1.594c0.074,-0.008 0.156,-0.017 0.212,-0.022c0.144,-0.011 0.273,0.001 0.368,0.031c0.216,0.066 0.35,0.205 0.412,0.403c0.061,0.194 0.054,0.432 0.018,0.677c-0.013,0.091 -0.03,0.183 -0.039,0.272c-0.004,0.039 -0.003,0.105 -0.003,0.122l0.603,1.181c0.191,0.104 0.484,0.2 0.684,0.325c0.201,0.126 0.339,0.283 0.405,0.445c0.093,0.225 0.124,0.528 0.113,0.852c-0.012,0.359 -0.074,0.751 -0.074,1.028c-0,0.045 -0.006,0.089 -0.018,0.131l-0.033,0.13c0.111,0.055 0.205,0.125 0.285,0.204c0.266,0.262 0.392,0.678 0.389,1.177c-0.003,0.525 -0.14,1.164 -0.192,1.693c-0.014,0.139 -0.021,0.269 -0.013,0.383c0.004,0.051 0.004,0.097 0.024,0.131c0.136,0.231 0.323,0.241 0.483,0.245c0.154,0.004 0.3,0.002 0.426,0.021c0.217,0.033 0.395,0.119 0.535,0.271c0.15,0.165 0.284,0.449 0.246,0.987c-0.065,0.908 -0.527,2.047 -0.818,2.895l-0.057,0.18c0.251,-0.001 0.455,0.088 0.596,0.258c0.184,0.221 0.287,0.526 0.35,0.862c0.055,0.295 0.057,0.627 0.195,0.851c0.015,0.013 0.106,0.09 0.166,0.135c0.146,0.108 0.304,0.227 0.425,0.358c0.275,0.297 0.395,0.647 0.218,1.06c-0.2,0.465 -0.48,0.919 -0.715,1.377c0.016,0.025 0.03,0.052 0.043,0.08c0.087,0.199 0.087,0.428 -0.001,0.66c-0.011,0.031 -0.025,0.062 -0.04,0.093c0.002,0.019 0.003,0.038 0.003,0.057c0,0.503 -0.172,1.001 -0.117,1.519c0.019,0.18 0.149,0.306 0.245,0.448c0.131,0.195 0.243,0.398 0.291,0.629c0.059,0.282 0.034,0.565 -0.021,0.849c-0.049,0.259 -0.141,0.518 -0.113,0.778c0.038,0.043 0.162,0.188 0.215,0.279c0.134,0.227 0.129,0.564 0.129,0.812c-0,0.224 0.046,0.498 0.028,0.739c-0.02,0.271 -0.107,0.51 -0.28,0.693c-0.02,0.034 -0.188,0.305 -0.281,0.421c-0.011,0.213 -0.008,0.421 0.03,0.606c0.047,0.038 0.175,0.146 0.241,0.213c0.118,0.122 0.209,0.263 0.252,0.437c0.113,0.452 0.047,0.922 -0.039,1.388c-0.061,0.326 -0.14,0.649 -0.077,0.955c0.108,0.521 0.633,1.37 0.825,1.793c0.539,1.194 0.429,1.445 0.273,1.786c-0.015,0.033 -0.032,0.067 -0.05,0.104c-0.366,0.053 -0.742,0.104 -1.129,0.155c0.057,-0.244 0.126,-0.41 0.188,-0.543c0.04,-0.086 0.087,-0.139 0.095,-0.218c0.017,-0.157 -0.078,-0.365 -0.304,-0.865c-0.213,-0.47 -0.773,-1.426 -0.894,-2.006c-0.089,-0.431 -0.012,-0.888 0.073,-1.347c0.058,-0.311 0.126,-0.623 0.06,-0.925c-0.036,-0.03 -0.169,-0.143 -0.233,-0.205c-0.124,-0.122 -0.215,-0.261 -0.256,-0.427c-0.089,-0.355 -0.066,-0.794 -0.04,-1.21l-0.006,-0.005c0,-0 0.004,-0.06 0.031,-0.608c0.014,-0.27 0.236,-0.481 0.503,-0.483c-0.01,-0.155 -0.027,-0.311 -0.027,-0.448l-0.001,-0.317c-0.043,-0.064 -0.104,-0.114 -0.149,-0.175c-0.088,-0.118 -0.154,-0.252 -0.179,-0.418c-0.04,-0.277 -0.006,-0.554 0.05,-0.83c0.052,-0.258 0.144,-0.515 0.09,-0.772c-0.039,-0.187 -0.183,-0.325 -0.286,-0.486c-0.134,-0.207 -0.238,-0.43 -0.265,-0.69c-0.034,-0.318 0.008,-0.629 0.049,-0.938c-0.095,-0.051 -0.174,-0.133 -0.221,-0.235c-0.084,-0.18 -0.055,-0.391 0.073,-0.543c0.042,-0.049 0.117,-0.129 0.19,-0.223c-0.053,-0.058 -0.091,-0.128 -0.114,-0.208c-0.027,-0.092 -0.045,-0.219 0.027,-0.386c0.249,-0.573 0.623,-1.134 0.878,-1.713c-0.04,-0.04 -0.12,-0.118 -0.176,-0.161c-0.22,-0.169 -0.433,-0.333 -0.528,-0.481c-0.179,-0.281 -0.253,-0.667 -0.315,-1.05c-0.025,-0.157 -0.038,-0.315 -0.087,-0.442c-0.114,0.02 -0.288,0.048 -0.382,0.052c-0.178,0.006 -0.331,-0.036 -0.451,-0.112c-0.09,-0.057 -0.256,-0.197 -0.243,-0.486c0.009,-0.184 0.271,-0.966 0.283,-1.001c0.266,-0.774 0.706,-1.809 0.765,-2.638c0.005,-0.064 0.003,-0.132 -0.001,-0.184c-0.031,-0.002 -0.065,-0.003 -0.091,-0.004c-0.15,-0.001 -0.311,-0.004 -0.474,-0.034c-0.347,-0.065 -0.702,-0.232 -0.986,-0.714c-0.104,-0.178 -0.163,-0.42 -0.167,-0.709c-0.006,-0.452 0.121,-1.063 0.182,-1.624c0.027,-0.251 0.043,-0.49 0.003,-0.687c-0.013,-0.062 -0.024,-0.121 -0.066,-0.158c-0.041,-0.037 -0.106,-0.039 -0.188,-0.039c-0.156,-0 -0.305,-0.072 -0.401,-0.196c-0.096,-0.124 -0.13,-0.285 -0.092,-0.437l0.148,-0.582c0.006,-0.235 0.044,-0.535 0.065,-0.828c0.014,-0.202 0.031,-0.401 -0.012,-0.55c-0.038,-0.023 -0.123,-0.074 -0.182,-0.101c-0.218,-0.1 -0.456,-0.193 -0.605,-0.291c-0.056,-0.037 -0.167,-0.142 -0.273,-0.319c-0.203,-0.336 -0.547,-1.08 -0.624,-1.233c-0.101,-0.201 -0.12,-0.456 -0.086,-0.726c0.007,-0.057 0.016,-0.114 0.025,-0.172c-0.108,0.009 -0.217,0.014 -0.282,0.007c-0.267,-0.03 -0.441,-0.165 -0.533,-0.35c-0.351,-0.701 -0.265,-1.804 -0.084,-2.524c0.005,-0.022 0.01,-0.044 0.013,-0.066c-0.052,-0.041 -0.116,-0.093 -0.161,-0.142c-0.094,-0.104 -0.189,-0.317 -0.188,-0.623c0.002,-0.339 0.1,-0.885 0.173,-1.334c0.028,-0.175 0.058,-0.329 0.062,-0.43c-0.143,-0.034 -0.342,-0.102 -0.472,-0.226c-0.08,-0.076 -0.15,-0.183 -0.19,-0.326c-0.038,-0.139 -0.048,-0.347 -0.021,-0.592c0.036,-0.342 0.137,-0.785 0.201,-1.145c0.021,-0.119 0.037,-0.275 0.043,-0.338l-0.214,-0.182c-0.183,-0.158 -0.34,-0.35 -0.409,-0.634c-0.155,-0.635 -0.132,-1.313 -0.335,-1.942c-0.039,-0.121 -0.136,-0.205 -0.209,-0.314c-0.101,-0.15 -0.188,-0.318 -0.232,-0.529c-0.046,-0.225 -0.042,-0.463 -0.02,-0.703c0.013,-0.148 0.037,-0.297 0.041,-0.443c-0.117,0.01 -0.267,0.024 -0.368,0.038c-0.266,0.037 -0.51,0.042 -0.658,0.001c-0.205,-0.057 -0.336,-0.178 -0.411,-0.328c-0.389,-0.779 -0.412,-0.814 -1.192,-1.343c-0.07,0.039 -0.185,0.105 -0.257,0.161c-0.236,0.179 -0.453,0.395 -0.541,0.475c-0.144,0.134 -0.36,0.203 -0.622,0.178c-0.056,-0.006 -0.145,-0.017 -0.217,-0.027c-0.058,0.175 -0.082,0.415 -0.128,0.622c-0.075,0.338 -0.2,0.618 -0.346,0.757c-0.091,0.088 -0.229,0.164 -0.413,0.199c-0.188,0.036 -0.466,0.029 -0.738,0.022c-0.102,-0.003 -0.245,0.004 -0.33,0.009c-0.054,0.097 -0.12,0.208 -0.181,0.32c-0.041,0.074 -0.093,0.196 -0.106,0.228c0.007,0.106 0.06,0.226 0.095,0.344c0.049,0.167 0.083,0.331 0.083,0.478c0,0.207 -0.125,0.389 -0.31,0.468c-0.023,0.038 -0.093,0.153 -0.131,0.238c-0.129,0.283 -0.228,0.615 -0.286,0.77c-0.122,0.329 -0.305,0.599 -0.493,0.856c-0.141,0.192 -0.287,0.373 -0.384,0.584c-0.06,0.132 -0.063,0.3 -0.089,0.456c-0.034,0.197 -0.087,0.382 -0.177,0.535c-0.071,0.12 -0.191,0.231 -0.396,0.258c-0.066,0.009 -0.167,0.007 -0.287,-0.024c-0.151,-0.039 -0.387,-0.141 -0.481,-0.182c-0.056,0.014 -0.308,0.075 -0.418,0.099c-0.131,0.028 -0.291,0.052 -0.443,0.094c-0.065,0.018 -0.131,0.034 -0.182,0.065c-0.081,0.176 -0.205,0.37 -0.36,0.391c-0.09,0.012 -0.205,0.005 -0.331,-0.052c-0.076,-0.034 -0.247,-0.155 -0.325,-0.211c-0.109,0.003 -0.219,0.055 -0.329,0.104c-0.235,0.105 -0.463,0.237 -0.662,0.311c-0.122,0.046 -0.262,0.062 -0.405,0.057c-0.06,-0.002 -0.155,-0.009 -0.208,-0.013c-0.386,0.22 -0.667,0.26 -0.957,0.287c-0.198,0.018 -0.404,0.023 -0.704,0.156c-0.292,0.129 -0.396,0.208 -0.48,0.249c-0.152,0.074 -0.261,0.11 -0.633,0.076c-0.087,-0.008 -0.268,-0.079 -0.487,-0.221c-0.201,-0.13 -0.51,-0.377 -0.845,-0.303c-0.212,0.046 -0.398,0.242 -0.588,0.623c-0.162,0.324 -0.363,0.411 -0.501,0.44c-0.159,0.032 -0.325,0.007 -0.492,-0.111c-0.059,-0.042 -0.126,-0.106 -0.199,-0.183c-0.034,-0.037 -0.071,-0.084 -0.117,-0.126c-0.083,0.138 -0.225,0.368 -0.32,0.482c-0.234,0.28 -0.52,0.417 -0.892,0.312c-0.043,0.015 -0.164,0.059 -0.237,0.094c-0.27,0.128 -0.55,0.258 -0.751,0.275c-0.302,0.026 -0.548,-0.036 -0.787,-0.123c-0.146,-0.054 -0.287,-0.124 -0.456,-0.155c-0.108,-0.02 -0.2,0.036 -0.291,0.1c-0.113,0.08 -0.219,0.183 -0.322,0.292c-0.369,0.389 -0.724,0.817 -1.071,0.972c-0.37,0.165 -0.692,0.121 -1.008,0.018c-0.09,-0.028 -0.178,-0.062 -0.268,-0.091c-0.098,-0.03 -0.201,-0.06 -0.321,0.002c-0.121,0.063 -0.214,0.179 -0.31,0.292c-0.165,0.192 -0.327,0.388 -0.509,0.527c-0.411,0.315 -0.936,0.414 -1.497,0.409c-0.512,-0.005 -1.057,-0.112 -1.511,-0.093c-0.049,0.061 -0.107,0.092 -0.163,0.106c-0.401,0.448 -0.704,0.563 -0.928,0.582c-0.16,0.014 -0.306,-0.016 -0.449,-0.074c-0.114,-0.046 -0.218,-0.147 -0.377,-0.165c-0.154,-0.018 -0.23,0.078 -0.301,0.159c-0.079,0.09 -0.152,0.182 -0.229,0.261c-0.146,0.149 -0.308,0.259 -0.499,0.31c-0.194,0.053 -0.427,0.053 -0.72,-0.076c-0.25,-0.109 -0.472,-0.418 -0.615,-0.825c-0.065,-0.184 -0.122,-0.388 -0.189,-0.567c-0.031,-0.083 -0.045,-0.166 -0.092,-0.205c-0.494,-0.404 -0.819,-0.545 -1.296,-1.068c-0.328,-0.359 -0.359,-0.612 -0.534,-0.993c-0.041,-0.011 -0.093,-0.024 -0.137,-0.033c-0.245,-0.051 -0.541,-0.1 -0.765,-0.17c-0.317,-0.101 -0.525,-0.279 -0.608,-0.448c-0.127,-0.26 -0.296,-0.368 -0.482,-0.497c-0.164,-0.114 -0.34,-0.236 -0.527,-0.409c-0.155,0.037 -0.674,0.162 -0.81,0.191c-0.397,0.085 -0.591,-0.017 -0.749,-0.137c-0.038,-0.028 -0.073,-0.06 -0.108,-0.094c-0.02,-0.02 -0.034,-0.053 -0.086,-0.061c-0.135,-0.021 -0.303,0.042 -0.472,0.101c-0.256,0.091 -0.507,0.205 -0.694,0.271c-0.064,0.022 -0.117,0.045 -0.162,0.071c-0.022,0.014 -0.046,0.016 -0.051,0.033c-0.027,0.095 0.027,0.199 0.061,0.315c0.105,0.368 0.215,0.773 0.119,1.177c-0.04,0.169 -0.134,0.337 -0.282,0.495c-0.144,0.152 -0.347,0.302 -0.57,0.449c-0.216,0.143 -0.454,0.285 -0.638,0.439c-0.052,0.044 -0.099,0.087 -0.136,0.134c-0.014,0.017 -0.034,0.029 -0.035,0.049c-0.03,0.546 0.263,1.436 0.46,1.936c0.029,0.075 0.231,0.499 0.267,0.732c0.034,0.217 -0.026,0.382 -0.094,0.481c-0.099,0.143 -0.263,0.257 -0.48,0.331c-0.094,0.032 -0.203,0.058 -0.31,0.094c-0.052,0.017 -0.114,0.021 -0.145,0.067c-0.184,0.277 -0.146,0.636 -0.081,0.995c0.085,0.46 0.244,0.925 0.334,1.311c0.055,0.011 0.121,0.025 0.173,0.032c0.214,0.031 0.448,0.06 0.635,0.109c0.323,0.085 0.537,0.259 0.627,0.442c0.125,0.255 0.092,0.552 -0.133,0.846c-0.111,0.146 -0.284,0.303 -0.438,0.457c-0.054,0.054 -0.129,0.147 -0.148,0.171c-0.087,0.49 0.007,0.924 0.067,1.358c0.08,0.575 0.117,1.148 -0.132,1.798c-0.135,0.352 -0.387,0.558 -0.669,0.709c-0.088,0.047 -0.178,0.088 -0.263,0.13c-0.039,0.02 -0.096,0.056 -0.123,0.073c0.002,0.019 0.004,0.05 0.009,0.074c0.015,0.071 0.044,0.153 0.085,0.248c0.102,0.237 0.316,0.525 0.524,0.687c0.076,0.037 0.382,0.188 0.499,0.276c0.117,0.088 0.184,0.187 0.216,0.259c0.087,0.198 0.058,0.375 -0.051,0.529c-0.469,0.665 -0.911,1.244 -0.731,2.088c0.062,0.291 0.096,0.563 0.349,0.741c0.052,0.019 0.247,0.091 0.354,0.147c0.115,0.06 0.209,0.135 0.272,0.209c0.141,0.167 0.183,0.355 0.131,0.554c-0.028,0.105 -0.1,0.237 -0.242,0.353c-0.14,0.113 -0.536,0.31 -0.584,0.334c-0.201,0.161 -0.55,0.443 -0.79,0.745c-0.053,0.066 -0.1,0.132 -0.136,0.199c-0.021,0.04 -0.048,0.075 -0.045,0.112c0.015,0.171 0.049,0.29 0.119,0.37c0.133,0.153 0.336,0.189 0.529,0.26c0.412,0.153 0.814,0.354 1.081,0.846c0.171,0.315 0.157,0.569 0.077,0.773c-0.074,0.19 -0.225,0.354 -0.442,0.478c-0.178,0.103 -0.415,0.181 -0.629,0.263c-0.016,0.006 -0.034,0.013 -0.052,0.022c0.02,0.072 0.039,0.14 0.044,0.159c0.06,0.282 0.097,0.644 0.182,0.983c0.052,0.203 0.11,0.405 0.24,0.538l0.214,0.027c0.139,-0.042 0.283,-0.064 0.41,-0.063c0.2,0.002 0.363,0.059 0.46,0.121c0.13,0.085 0.204,0.197 0.241,0.315c0.041,0.133 0.029,0.254 -0.019,0.366c-0.042,0.097 -0.119,0.203 -0.267,0.273c-0.06,0.028 -0.162,0.06 -0.298,0.067c-0.021,0.001 -0.044,0.001 -0.068,0.001l0.002,0.026c0.031,0.01 0.081,0.026 0.115,0.033c0.12,0.025 0.249,0.041 0.373,0.064c0.49,0.091 0.89,0.303 1.01,0.84c0.08,0.36 -0.031,0.907 -0.144,1.432c-0.043,0.197 -0.083,0.39 -0.095,0.56c-0.004,0.072 -0.022,0.137 0.005,0.182c0.064,0.105 0.17,0.158 0.245,0.246c0.118,0.14 0.213,0.308 0.244,0.559c0.026,0.222 0.04,0.633 -0.011,0.845c-0.002,0.009 -0.028,0.068 -0.06,0.136c0.338,0.265 0.733,0.628 1.04,1.025c0.315,0.406 0.534,0.852 0.571,1.274c0.1,1.122 -0.486,1.68 -1.106,2.306c0.007,0.121 0.018,0.313 0.018,0.352c0,0.204 -0.039,0.417 -0.062,0.629c-0.336,-0.032 -0.667,-0.065 -0.994,-0.099Zm-3.033,-29.027c0.011,0.006 0.022,0.012 0.034,0.017l-0.044,-0.023l0.01,0.006Zm33.401,-11.035c0.018,-0.042 0.032,-0.084 0.043,-0.115c0.01,-0.032 0.015,-0.053 0.015,-0.053c0,-0 -0.02,0.072 -0.058,0.168Z" style="fill:#d7d7d7;"/><path d="M12.187,47.006c0.542,0.406 1.521,0.799 2.863,1.128c1.844,0.451 4.418,0.817 7.444,1.066c11.692,0.963 30.163,0.188 39.059,-3.763c0.384,-0.171 0.558,-0.622 0.387,-1.007c-0.171,-0.384 -0.622,-0.558 -1.007,-0.387c-8.725,3.875 -26.846,4.581 -38.314,3.637c-2.929,-0.242 -5.421,-0.591 -7.206,-1.028c-1.076,-0.264 -1.876,-0.541 -2.311,-0.867c-0.337,-0.252 -0.815,-0.184 -1.068,0.153c-0.252,0.337 -0.184,0.815 0.153,1.068Z" style="fill:#feda37;"/></g></g><g><path d="M93.491,16.696l0,15.696c0,0.453 -0.059,0.904 -0.175,1.342c-0.248,1.291 -1.436,2.202 -2.747,2.108c-0.45,0.012 -0.898,-0.069 -1.314,-0.239c-1.075,-0.499 -1.602,-1.546 -1.602,-3.126l-0,-15.781l-10.539,0l-0,16.055c-0,7.536 4.436,11.304 13.307,11.304c8.206,0 12.314,-3.768 12.324,-11.304l-0,-16.055l-9.254,0Z" style="fill:#c01733;fill-rule:nonzero;"/><path d="M129.95,18.488c-1.208,-0.927 -2.604,-1.58 -4.09,-1.911c-2.204,-0.472 -4.456,-0.681 -6.709,-0.626c-2.811,0 -7.027,0.267 -12.563,0.836l-0,26.643l10.918,0l0,-12.176l-5.1,-0l10.236,-10.23l0,17.453c0.964,-0.112 1.908,-0.348 2.811,-0.703c1.473,-0.545 2.83,-1.365 3.998,-2.417c2.385,-2.174 3.723,-5.274 3.667,-8.501c-0.035,-3.879 -1.082,-6.689 -3.168,-8.368Z" style="fill:#c01733;fill-rule:nonzero;"/><path d="M134.783,16.696l0,8.656l7.427,0l-0,18.05l10.413,0l-0,-18.022l7.461,0l0,-8.656l-25.301,-0.028Z" style="fill:#c01733;fill-rule:nonzero;"/><path d="M177.059,17.954c-0.329,-0.609 -0.84,-1.101 -1.461,-1.406c-0.539,-0.267 -1.128,-0.42 -1.729,-0.449c-0.442,-0.012 -0.885,0.038 -1.314,0.147c-1.074,0.192 -2.007,0.858 -2.536,1.813l-13.279,25.364l11.818,0l0.892,-2.656l7.223,0l1.04,2.656l13.581,0l-14.235,-25.469Zm-6.773,17.509l2.81,-7.223l2.565,7.223l-5.375,-0Z" style="fill:#c01733;fill-rule:nonzero;"/><path d="M217.22,18.488c-1.205,-0.931 -2.602,-1.584 -4.089,-1.911c-2.214,-0.471 -4.475,-0.681 -6.738,-0.626c-2.811,0 -7.026,0.267 -12.528,0.836l0,26.643l10.912,0l-0,-4.834l2.979,0.056c1.678,0.017 3.346,-0.276 4.918,-0.864c1.474,-0.545 2.83,-1.365 3.998,-2.417c2.386,-2.174 3.723,-5.274 3.668,-8.501c-0.022,-3.893 -1.061,-6.703 -3.12,-8.382Zm-7.848,9.934c-0.776,0.783 -1.7,1.401 -2.719,1.82l-1.967,0.956l-0,-6.324c1.847,-1.314 3.253,-2.002 4.215,-2.002c0.278,-0.001 0.551,0.062 0.801,0.183c0.752,0.33 1.11,1.039 1.11,2.107c-0.055,1.212 -0.555,2.361 -1.405,3.225l-0.035,0.035Z" style="fill:#c01733;fill-rule:nonzero;"/><path d="M241.832,29.427l6.752,0l0,11.193c-1.618,1.144 -3.419,2.007 -5.326,2.55c-1.954,0.583 -3.982,0.881 -6.021,0.885c-2.661,0.043 -5.292,-0.572 -7.658,-1.791c-2.203,-1.144 -4.047,-2.876 -5.326,-5.003c-1.298,-2.195 -1.962,-4.708 -1.918,-7.258c-0.04,-2.551 0.629,-5.064 1.932,-7.258c1.284,-2.136 3.145,-3.868 5.368,-4.995c2.391,-1.222 5.044,-1.839 7.729,-1.799c2.327,-0.038 4.638,0.395 6.794,1.272c1.95,0.791 3.681,2.043 5.045,3.647l-4.87,4.426c-1.632,-1.923 -4.033,-3.029 -6.555,-3.021c-2.082,-0.098 -4.116,0.664 -5.621,2.108c-1.448,1.501 -2.212,3.537 -2.107,5.62c-0.024,1.393 0.307,2.769 0.962,3.998c0.629,1.148 1.566,2.097 2.705,2.74c1.217,0.67 2.588,1.009 3.977,0.984c1.425,0.009 2.835,-0.293 4.131,-0.885l0.007,-7.413Z" style="fill:rgb(241 245 249 / 0.2);fill-rule:nonzero;"/><path d="M270.786,38.266l-11.431,-0l-2.108,5.248l-7.799,0l11.945,-27.022l7.532,0l11.944,27.022l-7.961,0l-2.122,-5.248Zm-2.241,-5.621l-3.478,-8.649l-3.471,8.649l6.949,0Z" style="fill:rgb(241 245 249 / 0.2);fill-rule:nonzero;"/><path d="M306.647,43.514l-0.077,-14.319l-6.949,11.657l-3.393,-0l-6.928,-11.27l0,13.932l-7.026,0l0,-27.022l6.288,0l9.478,15.619l9.261,-15.619l6.323,0l0.078,27.022l-7.055,0Z" style="fill:rgb(241 245 249 / 0.2);fill-rule:nonzero;"/><path d="M340,37.606l0,5.908l-21.696,0l-0,-27.022l21.197,0l0,5.909l-13.63,0l-0,4.553l12.007,0l0,5.712l-12.007,0l-0,4.918l14.129,0.022Z" style="fill:rgb(241 245 249 / 0.2);fill-rule:nonzero;"/></g></g></svg>
