<svg width="23" height="15" viewBox="0 0 23 15" fill="none" xmlns="http://www.w3.org/2000/svg">
<path d="M15.8564 6.74524C17.5164 6.74524 18.8464 5.40524 18.8464 3.74524C18.8464 2.08524 17.5164 0.745239 15.8564 0.745239C14.1964 0.745239 12.8564 2.08524 12.8564 3.74524C12.8564 5.40524 14.1964 6.74524 15.8564 6.74524ZM7.85643 6.74524C9.51643 6.74524 10.8464 5.40524 10.8464 3.74524C10.8464 2.08524 9.51643 0.745239 7.85643 0.745239C6.19643 0.745239 4.85643 2.08524 4.85643 3.74524C4.85643 5.40524 6.19643 6.74524 7.85643 6.74524ZM7.85643 8.74524C5.52643 8.74524 0.85643 9.91524 0.85643 12.2452V14.7452H14.8564V12.2452C14.8564 9.91524 10.1864 8.74524 7.85643 8.74524ZM15.8564 8.74524C15.5664 8.74524 15.2364 8.76524 14.8864 8.79524C16.0464 9.63524 16.8564 10.7652 16.8564 12.2452V14.7452H22.8564V12.2452C22.8564 9.91524 18.1864 8.74524 15.8564 8.74524Z" fill="#00c30a"/>
</svg>
